<?xml version="1.0" encoding="UTF-8" standalone="no"?><!DOCTYPE svg PUBLIC "-//W3C//DTD SVG 1.1//EN" "http://www.w3.org/Graphics/SVG/1.1/DTD/svg11.dtd"><svg width="100%" height="100%" viewBox="0 0 800 513" version="1.1" xmlns="http://www.w3.org/2000/svg" xmlns:xlink="http://www.w3.org/1999/xlink" xml:space="preserve" xmlns:serif="http://www.serif.com/" style="fill-rule:evenodd;clip-rule:evenodd;stroke-linejoin:round;stroke-miterlimit:2;"><g><path d="M800,39.878l0,433.364c0,21.927 -17.802,39.729 -39.729,39.729l-720.543,0c-21.927,0 -39.729,-17.802 -39.729,-39.729l0,-433.364c0,-21.927 17.802,-39.729 39.729,-39.729l720.543,0c21.927,0 39.729,17.802 39.729,39.729Z" style="fill:#2557d6;"/><path d="M0.259,241.897l38.406,0l8.659,-20.013l19.387,0l8.637,20.013l75.566,0l0,-15.299l6.745,15.366l39.228,0l6.745,-15.594l0,15.528l187.797,0l-0.087,-32.851l3.633,0c2.543,0.085 3.287,0.31 3.287,4.335l0,28.516l97.128,0l0,-7.647c7.836,4.021 20.021,7.647 36.054,7.647l40.862,0l8.745,-20.013l19.387,0l8.552,20.013l78.743,0l0,-19.009l11.926,19.009l63.1,0l0,-125.666l-62.448,0l0,14.841l-8.742,-14.841l-64.08,0l0,14.841l-8.03,-14.841l-86.554,0c-14.487,0 -27.223,1.938 -37.511,7.337l0,-7.337l-59.729,0l0,7.337c-6.547,-5.566 -15.467,-7.337 -25.388,-7.337l-218.221,0l-14.642,32.456l-15.037,-32.456l-68.731,0l0,14.841l-7.552,-14.841l-58.617,0l-27.223,59.747l-0,65.917l0.003,0l0.002,0.002Zm242.429,-18.125l-23.043,0l-0.085,-70.566l-32.594,70.565l-19.736,0l-32.679,-70.628l0,70.628l-45.718,0l-8.637,-20.097l-46.802,0l-8.724,20.097l-24.414,0l40.252,-90.1l33.398,0l38.229,85.307l0,-85.307l36.687,0l29.417,61.122l27.023,-61.122l37.425,0l0.001,90.101Zm-170.174,-38.797l-15.384,-35.919l-15.299,35.919l30.684,0Zm261.877,38.795l-75.089,0l0,-90.1l75.089,0l0,18.762l-52.61,0l0,16.241l51.35,0l0,18.469l-51.351,0l0,17.994l52.61,0l0.001,18.634Zm105.818,-65.833c0,14.365 -10.006,21.787 -15.837,24.015c4.918,1.793 9.12,4.963 11.119,7.588c3.174,4.482 3.721,8.484 3.721,16.531l0,17.7l-22.673,0l-0.085,-11.362c0,-5.421 0.542,-13.218 -3.547,-17.553c-3.284,-3.17 -8.291,-3.857 -16.385,-3.857l-24.129,0l0,32.773l-22.479,0l0,-90.101l51.699,0c11.488,0 19.952,0.29 27.219,4.315c7.112,4.025 11.376,9.901 11.376,19.951Zm-28.413,13.378c-3.091,1.797 -6.742,1.857 -11.12,1.857l-27.306,0l0,-20.013l27.677,0c3.916,0 8.005,0.168 10.661,1.625c2.915,1.313 4.72,4.106 4.72,7.965c0,3.939 -1.717,7.108 -4.631,8.566Zm64.463,52.455l-22.934,0l0,-90.1l22.934,0l0,90.1Zm266.247,0l-31.853,0l-42.605,-67.625l0,67.625l-45.778,0l-8.747,-20.097l-46.694,0l-8.484,20.097l-26.309,0c-10.923,0 -24.76,-2.315 -32.592,-9.965c-7.899,-7.65 -12.01,-18.012 -12.01,-34.397c0,-13.363 2.457,-25.578 12.116,-35.232c7.268,-7.191 18.648,-10.506 34.137,-10.506l21.762,0l0,19.306l-21.306,0c-8.203,0 -12.836,1.169 -17.296,5.337c-3.831,3.794 -6.46,10.965 -6.46,20.41c0,9.652 2.001,16.613 6.178,21.159c3.46,3.566 9.751,4.647 15.665,4.647l10.096,0l31.68,-70.856l33.681,0l38.058,85.221l0,-85.22l34.226,0l39.511,62.75l0,-62.75l23.023,0l0,90.096Zm-136.632,-38.794l-15.556,-35.919l-15.47,35.919l31.025,0Zm193.91,182.668c-5.459,7.649 -16.098,11.528 -30.502,11.528l-43.409,0l0,-19.325l43.233,0c4.289,0 7.289,-0.541 9.096,-2.231c1.708,-1.512 2.672,-3.646 2.658,-5.877c0,-2.627 -1.091,-4.711 -2.746,-5.961c-1.631,-1.377 -4.005,-2 -7.921,-2c-21.104,-0.687 -47.435,0.624 -47.435,-27.895c0,-13.07 8.661,-26.83 32.249,-26.83l44.774,0l0,-17.929l-41.602,0c-12.552,0 -21.673,2.882 -28.132,7.359l0,-7.36l-61.53,0c-9.842,0 -21.391,2.338 -26.853,7.36l0,-7.36l-109.88,0l0,7.36c-8.744,-6.044 -23.498,-7.36 -30.31,-7.36l-72.476,0l0,7.36c-6.919,-6.419 -22.302,-7.36 -31.682,-7.36l-81.114,0l-18.56,19.247l-17.386,-19.247l-121.173,0l0,125.748l118.886,0l19.126,-19.553l18.018,19.553l73.283,0.063l0,-29.581l7.202,0c9.723,0.144 21.192,-0.234 31.309,-4.423l0,33.937l60.446,0l0,-32.775l2.915,0c3.721,0 4.088,0.148 4.088,3.708l0,29.063l183.622,0c11.657,0 23.843,-2.858 30.592,-8.047l0,8.047l58.243,0c12.119,0 23.956,-1.628 32.962,-5.795l0.002,-23.428l0.009,0.004Zm-364.084,-48.37c0,25.035 -19.495,30.204 -39.142,30.204l-28.047,0l0,30.228l-43.688,0l-27.679,-29.835l-28.764,29.835l-89.038,0l0,-90.122l90.406,0l27.656,29.541l28.593,-29.541l71.825,0c17.837,0 37.88,4.732 37.88,29.691Zm-178.708,41.476l-55.266,0l0,-17.93l49.349,0l0,-18.388l-49.349,0l0,-16.386l56.354,0l24.587,26.264l-25.675,26.44Zm89.046,10.319l-34.511,-36.711l34.511,-35.543l0,72.254Zm51.039,-40.072l-29.048,0l0,-22.95l29.308,0c8.116,0 13.749,3.17 13.749,11.05c0,7.795 -5.373,11.901 -14.01,11.901Zm152.182,-41.413l75.022,0l0,18.638l-52.637,0l0,16.385l51.352,0l0,18.388l-51.352,0l0,17.93l52.636,0.082l0,18.7l-75.023,0l0.002,-90.122Zm-28.843,48.241c5.004,1.769 9.093,4.94 11.011,7.565c3.175,4.402 3.633,8.508 3.725,16.45l0,17.867l-22.569,0l0,-11.275c0,-5.422 0.545,-13.45 -3.633,-17.641c-3.283,-3.228 -8.291,-3.999 -16.49,-3.999l-24.023,0l0,32.917l-22.587,0l0,-90.122l51.897,0c11.379,0 19.667,0.482 27.045,4.253c7.093,4.107 11.556,9.731 11.556,20.014c-0.001,14.383 -10.016,21.724 -15.931,23.973Zm-12.704,-11.393c-3.008,1.71 -6.725,1.858 -11.097,1.858l-27.308,0l0,-20.24l27.677,0c4.003,0 8.008,0.082 10.727,1.628c2.913,1.46 4.655,4.253 4.655,8.107c0,3.855 -1.743,6.961 -4.655,8.648Zm202.916,5.741c4.38,4.338 6.723,9.818 6.723,19.093c0,19.387 -12.639,28.437 -35.312,28.437l-43.78,0l0,-19.325l43.605,0c4.264,0 7.287,-0.539 9.181,-2.231c1.547,-1.393 2.656,-3.419 2.656,-5.877c0,-2.627 -1.2,-4.71 -2.744,-5.961c-1.718,-1.375 -4.089,-1.999 -8.004,-1.999c-21.021,-0.687 -47.346,0.625 -47.346,-27.893c0,-13.072 8.57,-26.832 32.137,-26.832l45.064,0l0,19.182l-41.234,0c-4.087,0 -6.744,0.149 -9.005,1.628c-2.462,1.459 -3.375,3.625 -3.375,6.482c0,3.399 2.089,5.713 4.919,6.715c2.371,0.79 4.919,1.021 8.746,1.021l12.101,0.314c12.201,0.283 20.578,2.306 25.669,7.247Zm89.195,-24.126l-40.967,0c-4.089,0 -6.809,0.148 -9.095,1.628c-2.372,1.46 -3.284,3.625 -3.284,6.485c0,3.399 2.001,5.711 4.914,6.713c2.372,0.791 4.919,1.022 8.662,1.022l12.184,0.312c12.292,0.291 20.497,2.316 25.5,7.254c0.914,0.687 1.459,1.459 2.085,2.231l0,-25.644l0.001,0Z" style="fill:#fff;fill-rule:nonzero;"/></g></svg>