<?xml version="1.0" encoding="UTF-8" standalone="no"?><!DOCTYPE svg PUBLIC "-//W3C//DTD SVG 1.1//EN" "http://www.w3.org/Graphics/SVG/1.1/DTD/svg11.dtd"><svg width="100%" height="100%" viewBox="0 0 800 513" version="1.1" xmlns="http://www.w3.org/2000/svg" xmlns:xlink="http://www.w3.org/1999/xlink" xml:space="preserve" xmlns:serif="http://www.serif.com/" style="fill-rule:evenodd;clip-rule:evenodd;stroke-linejoin:round;stroke-miterlimit:2;"><g><path d="M800,41.209l0,430.701c0,22.662 -18.398,41.06 -41.06,41.06l-717.88,0c-22.662,0 -41.06,-18.398 -41.06,-41.06l0,-430.701c0,-22.662 18.398,-41.06 41.06,-41.06l717.88,0c22.662,0 41.06,18.398 41.06,41.06Z"/><path d="M707.692,256.569c0,101.677 -82.41,184.103 -184.082,184.103c-101.662,0 -184.082,-82.422 -184.082,-184.103c0,-101.683 82.419,-184.113 184.082,-184.113c101.675,-0 184.082,82.428 184.082,184.113" style="fill:#d9222a;fill-rule:nonzero;"/><path d="M381.405,373.472c-5.098,-6.184 -9.783,-12.696 -14.025,-19.497l65.242,0c3.927,-6.279 7.469,-12.791 10.608,-19.499l-86.453,0c-2.968,-6.342 -5.569,-12.847 -7.792,-19.487l102.028,0c6.139,-18.363 9.466,-38 9.466,-58.424c0,-13.381 -1.428,-26.423 -4.133,-38.987l-112.677,0c1.419,-6.593 3.203,-13.101 5.342,-19.497l101.991,0c-2.227,-6.638 -4.826,-13.145 -7.787,-19.49l-86.414,0c3.142,-6.705 6.683,-13.214 10.603,-19.495l65.2,0c-4.25,-6.789 -8.933,-13.294 -14.021,-19.479l-37.155,0c5.713,-6.936 11.921,-13.449 18.576,-19.487c-32.671,-29.624 -76.038,-47.675 -123.61,-47.675c-101.671,0.001 -184.092,82.429 -184.092,184.113c0,101.677 82.418,184.103 184.092,184.103c47.577,0 90.941,-18.047 123.61,-47.667c6.667,-6.047 12.883,-12.574 18.599,-19.525l-37.198,0" style="fill:#0097d0;fill-rule:nonzero;"/><path d="M683.159,359.164c0,-3.282 2.663,-5.945 5.949,-5.945c3.282,0 5.941,2.663 5.941,5.945c0,3.286 -2.658,5.949 -5.941,5.949c-3.285,0.001 -5.949,-2.663 -5.949,-5.947l0,-0.002Zm5.949,4.521c2.493,0.001 4.515,-2.018 4.517,-4.51l0,-0.011c0,-2.49 -2.019,-4.509 -4.509,-4.509l-0.008,0c-2.492,-0.005 -4.516,2.011 -4.521,4.505l0,0.004c-0.002,2.495 2.021,4.519 4.515,4.521l0.006,0Zm-0.807,-1.91l-1.214,0l0,-5.223l2.204,0c0.457,0 0.927,0.004 1.333,0.265c0.429,0.291 0.663,0.795 0.663,1.304c0,0.597 -0.346,1.142 -0.903,1.35l0.958,2.304l-1.349,0l-0.795,-2.061l-0.897,0l0,2.062Zm0,-2.954l0.675,0c0.252,0 0.517,0.017 0.744,-0.104c0.201,-0.132 0.309,-0.374 0.309,-0.605c-0.01,-0.212 -0.119,-0.408 -0.295,-0.527c-0.217,-0.128 -0.555,-0.103 -0.783,-0.103l-0.649,0l0,1.338Zm-290.913,-52.517c-7.868,2.086 -15.475,3.103 -23.519,3.087c-25.657,-0.026 -39.021,-11.711 -39.021,-34.052c0,-26.112 17.012,-45.317 40.104,-45.317c18.888,0 30.949,10.769 30.949,27.637c0,5.598 -0.816,11.047 -2.816,18.765l-45.629,0c-1.624,10.906 6.347,15.696 19.911,15.696c8.128,0 15.479,-1.462 23.615,-4.73l-3.594,18.914Zm-12.27,-45.283c0,-1.648 2.538,-13.366 -10.667,-13.623c-7.29,0 -12.521,4.846 -14.636,13.623l25.303,0Zm27.727,-5.118c0,9.645 5.432,16.308 17.773,21.268c9.436,3.868 10.923,4.983 10.923,8.432c0,4.782 -4.171,6.979 -13.428,6.919c-6.953,-0.05 -13.294,-0.892 -20.783,-2.97l-3.312,17.594c6.654,1.543 15.988,2.051 24.255,2.244c24.642,0 36.017,-8.069 36.017,-25.505c0,-10.479 -4.744,-16.649 -16.443,-21.244c-9.783,-3.907 -10.931,-4.757 -10.931,-8.291c0,-4.154 3.875,-6.256 11.435,-6.256c4.576,0 10.85,0.424 16.799,1.135l3.343,-17.682c-6.064,-0.846 -15.266,-1.522 -20.59,-1.522c-26.103,0.002 -35.136,11.755 -35.059,25.879m-90.505,52.226l-19.141,0l0.456,-8.021c-5.837,6.328 -13.61,9.273 -24.162,9.273c-12.487,0 -21.043,-8.537 -21.043,-20.816c0,-18.661 14.872,-29.426 40.441,-29.426c2.628,0 5.969,0.195 9.401,0.576c0.71,-2.495 0.903,-3.568 0.903,-4.931c0,-5.108 -4.022,-6.988 -14.783,-6.988c-10.607,0.043 -17.765,1.611 -24.406,3.398l3.269,-17.128c11.483,-2.92 19.005,-4.043 27.513,-4.043c19.8,0 30.256,7.761 30.256,22.355c0.171,3.893 -1.188,11.706 -1.867,15.124c-0.778,4.977 -6.266,33.819 -6.838,40.627Zm-16.8,-34.042c-2.427,-0.248 -3.482,-0.32 -5.141,-0.32c-13.055,0 -19.675,3.884 -19.675,11.556c0,4.812 3.231,7.83 8.265,7.83c9.381,-0.001 16.154,-7.848 16.551,-19.066Zm199.087,32.832c-6.282,1.724 -11.175,2.472 -16.47,2.472c-11.727,0 -18.128,-5.993 -18.128,-16.667c-0.367,-2.932 2.495,-16.472 3.145,-20.244c0.649,-3.787 10.807,-58.966 10.807,-58.966l22.783,0l-3.449,18.256l11.685,0l-3.176,18.637l-11.734,0c0,0 -6.44,32.338 -6.44,34.804c0,3.924 2.376,5.628 7.829,5.628c2.611,0 4.626,-0.243 6.185,-0.71l-3.035,16.79m101.791,-76.896c-16.697,0 -29.744,6.872 -37.32,18.352l6.576,-17.023c-12.12,-4.448 -19.932,1.898 -27,10.923c0,0 -1.184,1.501 -2.359,2.872l0,-13.385l-21.393,0c-2.897,23.621 -8.022,47.569 -12.031,71.227l-0.964,5.149l23.012,0c2.179,-12.008 3.974,-21.756 5.761,-29.525c4.89,-21.32 13.116,-27.837 25.467,-24.957c-2.851,6.132 -4.415,13.223 -4.415,21.081c0,19.056 10.351,34.655 36.05,34.655c25.936,0 44.715,-13.856 44.715,-45.446c-0.001,-19.055 -12.514,-33.923 -36.099,-33.923Zm-6.697,60.838c-8.127,0.128 -13.054,-6.692 -13.054,-16.892c0,-12.095 7.192,-25.757 18.743,-25.757c9.32,0 12.513,7.388 12.513,15.261c0.001,17.209 -7.05,27.389 -18.201,27.389Zm-351.99,17.278l-22.916,0l13.621,-71.748l-31.355,71.748l-20.889,0l-3.821,-71.333l-13.662,71.333l-20.792,0l17.71,-93.329l35.808,0l2.987,52.027l22.684,-52.027l38.687,0l-18.063,93.329" style="fill-rule:nonzero;"/><path d="M644.256,296.436c0.002,-3.281 2.663,-5.942 5.945,-5.944c3.286,0 5.945,2.667 5.945,5.944c0.006,3.283 -2.65,5.95 -5.933,5.956c-3.283,0.006 -5.95,-2.65 -5.956,-5.933l0,-0.023Zm5.945,4.526c2.497,-0.003 4.52,-2.029 4.521,-4.526c-0.002,-2.496 -2.027,-4.517 -4.521,-4.517c-2.496,0 -4.52,2.022 -4.521,4.517c0.001,2.497 2.024,4.523 4.521,4.526Zm-0.803,-1.914l-1.218,0l0,-5.214l2.205,0c0.462,0 0.931,0 1.337,0.256c0.419,0.287 0.663,0.788 0.663,1.304c0,0.595 -0.346,1.145 -0.906,1.351l0.957,2.304l-1.351,0l-0.79,-2.061l-0.897,0l0,2.061Zm0,-2.962l0.675,0c0.248,0 0.517,0.017 0.744,-0.098c0.195,-0.138 0.309,-0.364 0.304,-0.604c-0.006,-0.211 -0.114,-0.406 -0.291,-0.525c-0.217,-0.133 -0.555,-0.098 -0.782,-0.098l-0.649,0l0,1.326Zm-246.267,4.466c-7.863,2.085 -15.474,3.107 -23.513,3.089c-25.658,-0.026 -39.022,-11.713 -39.022,-34.059c0,-26.103 17.005,-45.314 40.098,-45.314c18.893,0 30.949,10.767 30.949,27.634c0,5.607 -0.821,11.046 -2.81,18.77l-45.629,0c-1.624,10.902 6.338,15.701 19.906,15.701c8.128,0 15.475,-1.462 23.619,-4.735l-3.599,18.915Zm-12.269,-45.282c0,-1.645 2.533,-13.367 -10.666,-13.621c-7.291,0 -12.517,4.851 -14.637,13.621l25.303,0Zm27.731,-5.124c0,9.649 5.423,16.308 17.768,21.278c9.44,3.865 10.922,4.982 10.922,8.423c0,4.787 -4.169,6.985 -13.423,6.923c-6.957,-0.046 -13.299,-0.892 -20.783,-2.97l-3.32,17.586c6.657,1.556 15.997,2.065 24.261,2.256c24.641,0 36.021,-8.072 36.021,-25.508c0,-10.479 -4.747,-16.654 -16.452,-21.244c-9.782,-3.906 -10.927,-4.757 -10.927,-8.29c0,-4.155 3.88,-6.256 11.432,-6.256c4.585,0 10.854,0.427 16.807,1.139l3.333,-17.688c-6.064,-0.845 -15.261,-1.52 -20.581,-1.52c-26.111,0 -35.141,11.747 -35.058,25.872m-90.506,52.236l-19.145,0l0.462,-8.021c-5.842,6.316 -13.615,9.265 -24.162,9.265c-12.488,0 -21.047,-8.539 -21.047,-20.809c0,-18.67 14.867,-29.431 40.44,-29.431c2.628,0 5.965,0.196 9.405,0.576c0.71,-2.495 0.898,-3.564 0.898,-4.931c0,-5.111 -4.017,-6.988 -14.778,-6.988c-10.606,0.044 -17.764,1.615 -24.406,3.398l3.266,-17.124c11.487,-2.923 19.004,-4.046 27.517,-4.046c19.799,0 30.252,7.76 30.252,22.35c0.171,3.898 -1.189,11.705 -1.864,15.132c-0.782,4.974 -6.269,33.815 -6.838,40.629Zm-16.807,-34.049c-2.418,-0.25 -3.479,-0.32 -5.141,-0.32c-13.047,0 -19.672,3.884 -19.672,11.556c0,4.815 3.235,7.83 8.262,7.83c9.389,0 16.162,-7.85 16.551,-19.066Zm199.087,32.839c-6.277,1.718 -11.175,2.47 -16.467,2.47c-11.726,0 -18.123,-5.996 -18.123,-16.671c-0.371,-2.927 2.496,-16.471 3.141,-20.243c0.649,-3.787 10.807,-58.966 10.807,-58.966l22.778,0l-3.44,18.256l11.683,0l-3.175,18.636l-11.733,0c0,0 -6.445,32.338 -6.445,34.805c0,3.923 2.379,5.619 7.83,5.619c2.606,0 4.624,-0.235 6.184,-0.709l-3.039,16.802m113.303,-43.453c0,17.205 -7.056,27.394 -18.21,27.394c-8.123,0.115 -13.052,-6.692 -13.052,-16.897c0,-12.094 7.189,-25.757 18.739,-25.757c9.326,0 12.523,7.398 12.523,15.261Zm24.593,0.479c0,-19.056 -12.521,-33.928 -36.096,-33.928c-27.128,0 -44.667,18.079 -44.667,44.716c0,19.055 10.342,34.657 36.05,34.657c25.935,-0.001 44.714,-13.859 44.713,-45.445Zm-117.6,-32.188c-2.893,23.619 -8.017,47.564 -12.023,71.231l-0.97,5.15l23.01,0c8.294,-45.702 11.077,-58.722 28.452,-54.136l8.358,-21.629c-12.118,-4.449 -19.923,1.902 -26.983,10.931c0.636,-4.063 1.838,-7.983 1.547,-11.547l-21.392,0m-277.19,76.379l-22.91,0l13.615,-71.753l-31.359,71.753l-20.885,0l-3.821,-71.338l-13.662,71.338l-20.792,0l17.705,-93.333l35.816,0l1.893,57.778l25.205,-57.778l37.256,0l-18.065,93.333" style="fill:#fff;fill-rule:nonzero;"/></g></svg>