<?xml version="1.0" encoding="UTF-8" standalone="no"?><!DOCTYPE svg PUBLIC "-//W3C//DTD SVG 1.1//EN" "http://www.w3.org/Graphics/SVG/1.1/DTD/svg11.dtd"><svg width="100%" height="100%" viewBox="0 0 800 513" version="1.1" xmlns="http://www.w3.org/2000/svg" xmlns:xlink="http://www.w3.org/1999/xlink" xml:space="preserve" xmlns:serif="http://www.serif.com/" style="fill-rule:evenodd;clip-rule:evenodd;stroke-linejoin:round;stroke-miterlimit:2;"><g><path d="M41.026,0.966l717.949,0c22.658,0 41.026,18.368 41.026,41.026l0,430.769c0,22.658 -18.367,41.026 -41.026,41.026l-717.949,0c-22.657,0 -41.026,-18.367 -41.026,-41.026l0,-430.769c0,-22.657 18.368,-41.026 41.026,-41.026Z" style="fill:#0e4595;fill-rule:nonzero;"/><path d="M300.718,358.638l34.216,-200.779l54.728,0l-34.241,200.779l-54.704,0Zm252.421,-196.451c-10.841,-4.068 -27.833,-8.433 -49.048,-8.433c-54.077,0 -92.169,27.231 -92.492,66.259c-0.307,28.851 27.194,44.946 47.951,54.55c21.304,9.841 28.464,16.117 28.363,24.906c-0.134,13.457 -17.011,19.606 -32.741,19.606c-21.905,0 -33.542,-3.043 -51.515,-10.539l-7.052,-3.19l-7.681,44.947c12.783,5.604 36.421,10.459 60.962,10.711c57.528,0 94.872,-26.919 95.298,-68.597c0.204,-22.84 -14.375,-40.222 -45.95,-54.552c-19.128,-9.287 -30.843,-15.486 -30.719,-24.89c0,-8.346 9.916,-17.271 31.341,-17.271c17.896,-0.277 30.862,3.626 40.962,7.692l4.904,2.318l7.417,-43.517m140.831,-4.331l-42.289,0c-13.101,0 -22.905,3.576 -28.657,16.65l-81.276,184l57.468,0c0,0 9.395,-24.742 11.52,-30.172c6.282,0 62.108,0.086 70.09,0.086c1.637,7.029 6.656,30.086 6.656,30.086l50.784,0l-44.295,-200.656l0,0.006Zm-67.095,129.651c4.525,-11.568 21.805,-56.126 21.805,-56.126c-0.324,0.535 4.491,-11.625 7.255,-19.163l3.697,17.312c0,0 10.481,47.927 12.671,57.977l-45.429,0Zm-372.615,-129.651l-53.579,136.923l-5.71,-27.826c-9.974,-32.075 -41.051,-66.826 -75.793,-84.224l48.991,175.59l57.904,-0.066l86.158,-200.4l-57.97,0" style="fill:#fff;fill-rule:nonzero;"/><path d="M150.687,157.848l-88.247,0l-0.698,4.177c68.654,16.619 114.082,56.783 132.944,105.036l-19.19,-92.267c-3.313,-12.713 -12.92,-16.507 -24.806,-16.951" style="fill:#f2ae14;fill-rule:nonzero;"/></g><g><path d="M800,42.784l0,428.123c0,23.373 -18.976,42.349 -42.349,42.349l-715.302,0c-23.373,0 -42.349,-18.976 -42.349,-42.349l0,-428.123c0,-23.373 18.976,-42.349 42.349,-42.349l715.302,0c23.373,0 42.349,18.976 42.349,42.349Z" style="fill:#16366f;"/><path d="M460.523,256.845c0,101.685 -82.431,184.103 -184.113,184.103c-101.682,0 -184.103,-82.422 -184.103,-184.103c0,-101.675 82.423,-184.103 184.103,-184.103c101.679,-0 184.113,82.431 184.113,184.103" style="fill:#d9222a;fill-rule:nonzero;"/><path d="M523.579,72.738c-47.569,0 -90.916,18.047 -123.59,47.657c-6.656,6.04 -12.87,12.551 -18.59,19.483l37.196,0c5.093,6.192 9.781,12.706 14.036,19.501l-65.267,0c-3.925,6.278 -7.467,12.789 -10.606,19.495l86.474,0c2.967,6.344 5.57,12.851 7.795,19.491l-102.064,0c-2.145,6.395 -3.93,12.904 -5.351,19.496l112.759,0c2.758,12.81 4.148,25.878 4.145,38.983c0,20.445 -3.337,40.116 -9.491,58.482l-102.064,0c2.219,6.645 4.821,13.154 7.79,19.497l86.479,0c-3.143,6.708 -6.687,13.219 -10.612,19.501l-65.256,0c4.261,6.799 8.954,13.312 14.036,19.483l37.188,0c-5.713,6.946 -11.928,13.463 -18.595,19.499c32.677,29.607 76.018,47.645 123.59,47.645c101.68,-0.001 184.113,-82.423 184.113,-184.103c0,-101.672 -82.431,-184.103 -184.113,-184.103" style="fill:#ee9f2d;fill-rule:nonzero;"/><path d="M683.159,359.471c0,-3.283 2.658,-5.95 5.945,-5.95c3.286,0 5.945,2.667 5.945,5.95c0,3.281 -2.658,5.948 -5.945,5.948c-3.284,-0.001 -5.946,-2.665 -5.945,-5.948Zm5.945,4.521c2.497,-0.001 4.52,-2.026 4.521,-4.521c0,-2.495 -2.023,-4.517 -4.517,-4.517l-0.004,0c-2.491,-0.004 -4.513,2.013 -4.517,4.505l0,0.013c-0.003,2.494 2.017,4.519 4.512,4.521c0.001,-0.001 0.003,-0.001 0.005,-0.001Zm-0.802,-1.908l-1.219,-0l0,-5.225l2.204,0c0.462,0 0.931,0 1.338,0.261c0.424,0.285 0.663,0.79 0.663,1.311c0,0.585 -0.346,1.132 -0.906,1.346l0.961,2.308l-1.349,0l-0.8,-2.068l-0.892,0l0,2.068Zm-0.001,-2.964l0.675,0c0.252,0 0.517,0.021 0.744,-0.103c0.201,-0.128 0.304,-0.368 0.304,-0.599c0,-0.2 -0.123,-0.431 -0.295,-0.529c-0.212,-0.134 -0.55,-0.104 -0.777,-0.104l-0.649,0l0,1.334Zm-454.872,-82.116c-2.097,-0.243 -3.021,-0.309 -4.462,-0.309c-11.328,0 -17.064,3.886 -17.064,11.557c0,4.729 2.8,7.739 7.166,7.739c8.142,0 14.009,-7.754 14.359,-18.988Zm14.534,33.842l-16.56,0l0.381,-7.873c-5.051,6.223 -11.791,9.179 -20.949,9.179c-10.833,0 -18.261,-8.462 -18.261,-20.748c0,-18.486 12.919,-29.272 35.094,-29.272c2.265,0 5.17,0.205 8.145,0.584c0.621,-2.504 0.783,-3.575 0.783,-4.923c0,-5.034 -3.483,-6.911 -12.821,-6.911c-9.777,-0.111 -17.842,2.329 -21.154,3.419c0.209,-1.262 2.769,-17.085 2.769,-17.085c9.961,-2.919 16.53,-4.017 23.923,-4.017c17.162,0 26.252,7.705 26.236,22.269c0.033,3.903 -0.612,8.718 -1.621,15.047c-1.735,11.006 -5.456,34.583 -5.966,40.33Zm-63.752,0l-19.988,0l11.449,-71.792l-25.564,71.792l-13.621,0l-1.682,-71.382l-12.035,71.382l-18.71,0l15.629,-93.389l28.738,0l1.744,52.273l17.53,-52.273l31.966,0l-15.457,93.389m364.082,-33.842c-2.089,-0.243 -3.017,-0.309 -4.453,-0.309c-11.324,0 -17.061,3.886 -17.061,11.557c0,4.729 2.796,7.739 7.162,7.739c8.143,0 14.014,-7.754 14.352,-18.988Zm14.547,33.842l-16.559,0l0.374,-7.873c-5.051,6.223 -11.795,9.179 -20.944,9.179c-10.837,0 -18.256,-8.462 -18.256,-20.748c0,-18.486 12.91,-29.272 35.089,-29.272c2.265,0 5.166,0.205 8.137,0.584c0.619,-2.504 0.783,-3.575 0.783,-4.923c0,-5.034 -3.479,-6.911 -12.816,-6.911c-9.777,-0.111 -17.834,2.329 -21.159,3.419c0.21,-1.262 2.778,-17.085 2.778,-17.085c9.962,-2.919 16.526,-4.017 23.91,-4.017c17.17,0 26.261,7.705 26.244,22.269c0.033,3.903 -0.612,8.718 -1.621,15.047c-1.725,11.006 -5.456,34.583 -5.961,40.33Zm-226.041,-1.154c-5.471,1.723 -9.735,2.461 -14.359,2.461c-10.218,0 -15.795,-5.872 -15.795,-16.684c-0.146,-3.354 1.47,-12.184 2.738,-20.243c1.154,-7.094 8.667,-51.826 8.667,-51.826l19.868,0l-2.32,11.496l12,0l-2.711,18.252l-12.043,0c-2.308,14.444 -5.594,32.436 -5.632,34.821c0,3.915 2.089,5.624 6.841,5.624c2.278,0 4.042,-0.232 5.39,-0.718l-2.644,16.817m60.914,-0.615c-6.825,2.085 -13.41,3.094 -20.389,3.077c-22.239,-0.022 -33.833,-11.637 -33.833,-33.879c0,-25.962 14.749,-45.074 34.769,-45.074c16.379,0 26.841,10.701 26.841,27.483c0,5.568 -0.718,11.004 -2.448,18.679l-39.564,0c-1.337,11.017 5.713,15.607 17.269,15.607c7.113,0 13.526,-1.467 20.658,-4.783l-3.304,18.889Zm-11.166,-45.026c0.11,-1.583 2.107,-13.556 -9.244,-13.556c-6.329,0 -10.854,4.825 -12.697,13.556l21.942,0Zm-126.585,-5.146c0,9.607 4.657,16.231 15.222,21.206c8.094,3.804 9.347,4.932 9.347,8.379c0,4.735 -3.569,6.872 -11.479,6.872c-5.961,0 -11.508,-0.93 -17.906,-2.995c0,0 -2.629,16.738 -2.749,17.539c4.544,0.991 8.595,1.909 20.8,2.246c21.089,0 30.829,-8.03 30.829,-25.385c0,-10.436 -4.077,-16.56 -14.089,-21.162c-8.381,-3.846 -9.343,-4.706 -9.343,-8.252c0,-4.107 3.321,-6.201 9.783,-6.201c3.923,0 9.282,0.418 14.359,1.142l2.846,-17.615c-5.175,-0.821 -13.022,-1.479 -17.59,-1.479c-22.359,0 -30.098,11.679 -30.03,25.705m234.964,-23.709c5.552,0 10.727,1.456 17.859,5.046l3.269,-20.269c-2.927,-1.149 -13.235,-7.897 -21.965,-7.897c-13.376,0 -24.683,6.636 -32.636,17.59c-11.6,-3.842 -16.368,3.923 -22.214,11.658l-5.192,1.209c0.393,-2.547 0.749,-5.077 0.629,-7.637l-18.355,0c-2.508,23.505 -6.953,47.313 -10.432,70.846l-0.907,5.104l19.996,0c3.337,-21.685 5.167,-35.57 6.278,-44.966l7.53,-4.189c1.124,-4.185 4.645,-5.598 11.709,-5.428c-0.95,5.136 -1.425,10.349 -1.418,15.573c0,24.846 13.406,40.316 34.923,40.316c5.543,0 10.299,-0.73 17.663,-2.725l3.519,-21.292c-6.626,3.262 -12.063,4.796 -16.986,4.796c-11.618,0 -18.649,-8.576 -18.649,-22.753c-0.001,-20.564 10.456,-34.983 25.379,-34.983" style="fill-rule:nonzero;"/><path d="M189.959,305.296l-19.991,0l11.456,-71.783l-25.564,71.783l-13.623,0l-1.684,-71.372l-12.034,71.372l-18.711,0l15.629,-93.376l28.738,0l0.808,57.807l19.389,-57.807l31.043,0l-15.457,93.376" style="fill:#fff;fill-rule:nonzero;"/><path d="M664.123,217.46l-4.43,26.983c-5.467,-7.192 -11.337,-12.397 -19.089,-12.397c-10.086,0 -19.266,7.645 -25.274,18.897c-8.367,-1.735 -17.023,-4.68 -17.023,-4.68l-0.004,0.069c0.675,-6.29 0.944,-10.128 0.884,-11.432l-18.359,0c-2.499,23.505 -6.944,47.313 -10.417,70.846l-0.916,5.104l19.992,0c2.701,-17.535 4.769,-32.095 6.29,-43.642c6.83,-6.171 10.248,-11.556 17.15,-11.197c-3.055,7.391 -4.846,15.902 -4.846,24.633c0,18.988 9.607,31.513 24.137,31.513c7.324,0 12.944,-2.525 18.427,-8.379l-0.935,7.061l18.906,0l15.223,-93.377l-19.715,0Zm-24.995,75.838c-6.804,0 -10.239,-5.035 -10.239,-14.971c0,-14.926 6.432,-25.513 15.499,-25.513c6.867,0 10.585,5.235 10.585,14.88c0.001,15.057 -6.532,25.604 -15.845,25.604Z" style="fill-rule:nonzero;"/><path d="M239.169,271.471c-2.094,-0.242 -3.022,-0.308 -4.457,-0.308c-11.329,0 -17.061,3.885 -17.061,11.556c0,4.722 2.8,7.741 7.159,7.741c8.149,-0.001 14.016,-7.753 14.359,-18.989Zm14.543,33.83l-16.56,0l0.376,-7.859c-5.047,6.209 -11.795,9.179 -20.945,9.179c-10.838,0 -18.261,-8.462 -18.261,-20.748c0,-18.494 12.914,-29.274 35.093,-29.274c2.266,0 5.171,0.205 8.142,0.586c0.619,-2.505 0.782,-3.576 0.782,-4.931c0,-5.034 -3.478,-6.903 -12.816,-6.903c-9.782,-0.111 -17.841,2.33 -21.158,3.407c0.209,-1.257 2.769,-17.065 2.769,-17.065c9.958,-2.931 16.534,-4.031 23.919,-4.031c17.167,0 26.261,7.711 26.244,22.262c0.03,3.918 -0.621,8.73 -1.625,15.051c-1.73,11 -5.456,34.59 -5.961,40.325Zm268.082,-90.864l-3.274,20.274c-7.128,-3.586 -12.308,-5.047 -17.853,-5.047c-14.924,0 -25.385,14.418 -25.385,34.982c0,14.175 7.033,22.75 18.649,22.75c4.923,0 10.355,-1.53 16.978,-4.797l-3.508,21.282c-7.368,2.009 -12.119,2.741 -17.668,2.741c-21.514,0 -34.923,-15.471 -34.923,-40.317c0,-33.385 18.522,-56.718 45.013,-56.718c8.725,0.001 19.038,3.702 21.969,4.851m32.248,57.034c-2.093,-0.242 -3.016,-0.308 -4.457,-0.308c-11.325,0 -17.061,3.885 -17.061,11.556c0,4.722 2.799,7.741 7.163,7.741c8.141,-0.001 14.012,-7.753 14.355,-18.989Zm14.543,33.83l-16.564,0l0.379,-7.859c-5.05,6.209 -11.795,9.179 -20.944,9.179c-10.834,0 -18.261,-8.462 -18.261,-20.748c0,-18.494 12.918,-29.274 35.089,-29.274c2.27,0 5.171,0.205 8.145,0.586c0.616,-2.505 0.783,-3.576 0.783,-4.931c0,-5.034 -3.479,-6.903 -12.816,-6.903c-9.777,-0.111 -17.842,2.33 -21.158,3.407c0.209,-1.257 2.773,-17.065 2.773,-17.065c9.958,-2.931 16.529,-4.031 23.914,-4.031c17.171,0 26.261,7.711 26.239,22.262c0.035,3.918 -0.61,8.73 -1.619,15.051c-1.725,11 -5.461,34.59 -5.96,40.325Zm-226.041,-1.151c-5.475,1.723 -9.739,2.471 -14.359,2.471c-10.218,0 -15.795,-5.873 -15.795,-16.683c-0.142,-3.365 1.474,-12.186 2.744,-20.244c1.149,-7.104 8.663,-51.829 8.663,-51.829l19.864,0l-2.317,11.499l10.197,0l-2.714,18.244l-10.231,0c-2.308,14.452 -5.603,32.43 -5.637,34.819c0,3.928 2.094,5.624 6.842,5.624c2.277,0 4.039,-0.223 5.389,-0.71l-2.645,16.808m60.915,-0.606c-6.821,2.085 -13.415,3.09 -20.39,3.077c-22.24,-0.022 -33.833,-11.637 -33.833,-33.88c0,-25.97 14.749,-45.077 34.769,-45.077c16.379,0 26.841,10.696 26.841,27.487c0,5.572 -0.718,11.008 -2.443,18.679l-39.564,0c-1.339,11.016 5.712,15.611 17.269,15.611c7.108,0 13.526,-1.471 20.653,-4.796l-3.303,18.898Zm-11.171,-45.038c0.12,-1.577 2.112,-13.556 -9.244,-13.556c-6.324,0 -10.85,4.838 -12.692,13.556l21.936,0Zm-126.585,-5.132c0,9.605 4.658,16.222 15.223,21.205c8.093,3.803 9.346,4.935 9.346,8.379c0,4.735 -3.572,6.872 -11.474,6.872c-5.966,0 -11.513,-0.931 -17.915,-2.995c0,0 -2.619,16.738 -2.738,17.538c4.533,0.992 8.589,1.897 20.794,2.247c21.094,0 30.83,-8.03 30.83,-25.381c0,-10.441 -4.073,-16.564 -14.09,-21.166c-8.376,-3.854 -9.346,-4.701 -9.346,-8.252c0,-4.103 3.328,-6.213 9.786,-6.213c3.919,0 9.278,0.431 14.363,1.154l2.842,-17.621c-5.17,-0.821 -13.016,-1.478 -17.586,-1.478c-22.363,0 -30.097,11.671 -30.034,25.71m408.667,51.927l-18.91,0l0.941,-7.07c-5.484,5.864 -11.103,8.39 -18.428,8.39c-14.531,0 -24.133,-12.526 -24.133,-31.513c0,-25.262 14.893,-46.557 32.522,-46.557c7.752,0 13.621,3.167 19.081,10.355l4.436,-26.983l19.714,0l-15.223,93.377Zm-29.482,-17.548c9.308,0 15.846,-10.547 15.846,-25.593c0,-9.646 -3.723,-14.881 -10.59,-14.881c-9.065,0 -15.504,10.582 -15.504,25.513c-0.001,9.934 3.443,14.961 10.247,14.961Zm-58.301,-58.389c-2.502,23.505 -6.947,47.313 -10.423,70.834l-0.914,5.103l19.991,0c7.15,-46.436 8.88,-55.505 20.09,-54.368c1.787,-9.504 5.11,-17.829 7.589,-22.03c-8.372,-1.744 -13.047,2.988 -19.167,11.974c0.483,-3.884 1.368,-7.657 1.193,-11.513l-18.359,0m-164.533,0c-2.509,23.505 -6.954,47.313 -10.428,70.834l-0.91,5.103l20,0c7.141,-46.436 8.868,-55.505 20.071,-54.368c1.795,-9.504 5.12,-17.829 7.59,-22.03c-8.363,-1.744 -13.042,2.988 -19.157,11.974c0.482,-3.884 1.359,-7.657 1.192,-11.513l-18.358,0m261.097,69.992c0,-3.296 2.663,-5.949 5.945,-5.949c3.279,-0.003 5.941,2.653 5.944,5.933l0,0.015c-0.001,3.282 -2.662,5.943 -5.944,5.945c-3.282,-0.002 -5.943,-2.663 -5.945,-5.945Zm5.945,4.517c2.494,0.001 4.516,-2.021 4.516,-4.514l0,-0.002c0.003,-2.495 -2.018,-4.519 -4.512,-4.521l-0.004,0c-2.497,0.001 -4.521,2.025 -4.522,4.521c0.003,2.494 2.027,4.516 4.522,4.516Zm-0.804,-1.918l-1.218,0l0,-5.214l2.209,0c0.457,0 0.931,0.008 1.329,0.261c0.427,0.29 0.671,0.787 0.671,1.307c0,0.59 -0.347,1.142 -0.911,1.351l0.965,2.293l-1.353,0l-0.8,-2.059l-0.892,0l0,2.063Zm-0.001,-2.954l0.672,0c0.251,0 0.526,0.018 0.748,-0.103c0.2,-0.128 0.303,-0.37 0.303,-0.602c-0.009,-0.215 -0.118,-0.414 -0.294,-0.537c-0.209,-0.12 -0.556,-0.087 -0.783,-0.087l-0.645,0l0,1.329Z" style="fill:#fff;fill-rule:nonzero;"/></g></svg>