<?xml version="1.0" encoding="UTF-8" standalone="no"?><!DOCTYPE svg PUBLIC "-//W3C//DTD SVG 1.1//EN" "http://www.w3.org/Graphics/SVG/1.1/DTD/svg11.dtd"><svg width="100%" height="100%" viewBox="0 0 800 513" version="1.1" xmlns="http://www.w3.org/2000/svg" xmlns:xlink="http://www.w3.org/1999/xlink" xml:space="preserve" xmlns:serif="http://www.serif.com/" style="fill-rule:evenodd;clip-rule:evenodd;stroke-linejoin:round;stroke-miterlimit:2;"><path d="M41.026,0.966l717.949,0c22.658,0 41.026,18.368 41.026,41.026l0,430.769c0,22.658 -18.367,41.026 -41.026,41.026l-717.949,0c-22.657,0 -41.026,-18.367 -41.026,-41.026l0,-430.769c0,-22.657 18.368,-41.026 41.026,-41.026Z" style="fill:#0e4595;fill-rule:nonzero;"/><path d="M300.718,358.638l34.216,-200.779l54.728,0l-34.241,200.779l-54.704,0Zm252.421,-196.451c-10.841,-4.068 -27.833,-8.433 -49.048,-8.433c-54.077,0 -92.169,27.231 -92.492,66.259c-0.307,28.851 27.194,44.946 47.951,54.55c21.304,9.841 28.464,16.117 28.363,24.906c-0.134,13.457 -17.011,19.606 -32.741,19.606c-21.905,0 -33.542,-3.043 -51.515,-10.539l-7.052,-3.19l-7.681,44.947c12.783,5.604 36.421,10.459 60.962,10.711c57.528,0 94.872,-26.919 95.298,-68.597c0.204,-22.84 -14.375,-40.222 -45.95,-54.552c-19.128,-9.287 -30.843,-15.486 -30.719,-24.89c0,-8.346 9.916,-17.271 31.341,-17.271c17.896,-0.277 30.862,3.626 40.962,7.692l4.904,2.318l7.417,-43.517m140.831,-4.331l-42.289,0c-13.101,0 -22.905,3.576 -28.657,16.65l-81.276,184l57.468,0c0,0 9.395,-24.742 11.52,-30.172c6.282,0 62.108,0.086 70.09,0.086c1.637,7.029 6.656,30.086 6.656,30.086l50.784,0l-44.295,-200.656l0,0.006Zm-67.095,129.651c4.525,-11.568 21.805,-56.126 21.805,-56.126c-0.324,0.535 4.491,-11.625 7.255,-19.163l3.697,17.312c0,0 10.481,47.927 12.671,57.977l-45.429,0Zm-372.615,-129.651l-53.579,136.923l-5.71,-27.826c-9.974,-32.075 -41.051,-66.826 -75.793,-84.224l48.991,175.59l57.904,-0.066l86.158,-200.4l-57.97,0" style="fill:#fff;fill-rule:nonzero;"/><path d="M150.687,157.848l-88.247,0l-0.698,4.177c68.654,16.619 114.082,56.783 132.944,105.036l-19.19,-92.267c-3.313,-12.713 -12.92,-16.507 -24.806,-16.951" style="fill:#f2ae14;fill-rule:nonzero;"/></svg>