<?xml version="1.0" encoding="UTF-8" standalone="no"?><!DOCTYPE svg PUBLIC "-//W3C//DTD SVG 1.1//EN" "http://www.w3.org/Graphics/SVG/1.1/DTD/svg11.dtd"><svg width="100%" height="100%" viewBox="0 0 512 512" version="1.1" xmlns="http://www.w3.org/2000/svg" xmlns:xlink="http://www.w3.org/1999/xlink" xml:space="preserve" xmlns:serif="http://www.serif.com/" style="fill-rule:evenodd;clip-rule:evenodd;stroke-linejoin:round;stroke-miterlimit:2;"><g><g><path d="M25.003,325.815c-21.61,-49.809 -32.732,-76.232 15.521,-96.514c123.34,-51.843 122.535,-52.606 246.044,-104.313c71.493,-29.931 120.216,-62.137 139.782,-13.024c1.506,3.783 16.202,47.92 16.202,47.92l-75.19,29.319c-18.796,8.414 -23.939,34.61 -12.525,61.931c9.935,23.782 38.721,32.727 51.207,27.986l72.884,-29.073c14.552,33.983 52.743,85.757 -2.116,108.995l-339.277,142.449c-15.239,7.62 -33.302,3.187 -40.156,-9.973c-7.349,-14.11 -20.763,-41.245 -48.716,-108.919c10.38,6.145 24.05,8.469 40.972,4.489c16.905,-3.976 27.576,-17.825 28.789,-24.522l-21.244,-2.51c-6.189,10.156 -19.75,10.665 -19.896,10.693c-2.816,-0.22 -12.778,1.517 -22.251,-7.651c-6.205,-6.007 -10.321,-21.191 -5.641,-21.287l71.296,-0.985c5.127,-46.026 -40.535,-73.855 -75.722,-49.29c-11.243,7.85 -17.876,20.573 -19.961,34.277l-0.004,0.002Zm301.194,-42.618c-2.592,-0.069 -5.176,-0.279 -7.768,-0.348c-34.129,-0.914 -46.461,29.592 -41.137,30.324c1.634,0.226 19.368,2.666 20.612,-0.372c7.808,-19.071 34.382,-12.634 38.797,-4.342c15.048,28.266 -52.327,6.981 -62.911,38.69c-14.049,42.092 46.743,54.003 62.997,27.605c4.324,-7.021 2.1,2.082 2.125,10.263c0.007,2.39 10.033,1.643 19.837,1.601c2.763,-0.011 1.83,-9.301 1.876,-37.258c0.058,-35.941 5.648,-60.942 -34.428,-66.166l0,0.002Zm12.243,67.708c-5.73,33.907 -58.551,20.985 -41.398,-1.28c5.493,-7.132 15.401,-5.12 40.063,-11.676c2.428,-0.645 1.34,11.926 1.335,12.957Zm-128.117,-71.732l-24.824,0l-22.874,70.906l-25.724,-87.535l-25.03,0l36.537,126.044l25.853,0l23.649,-75.001l23.649,75.001l25.853,0l36.537,-126.044l-25.03,0l-25.724,87.535l-22.874,-70.906Zm-131.435,21.892c2.373,0.683 20.315,5.843 20.025,23.48c-0.025,1.561 -1.016,1.249 -47.976,1.326c-6.424,0.011 -4.44,-3.118 -2.062,-8.959c7.58,-18.615 27.319,-16.18 30.013,-15.849l0,0.002Z" style="fill:#23e8ff;"/><path d="M330.384,79.535c-22.191,9.804 -280.94,124.13 -280.346,115.601c0.058,-0.829 142.862,-91.267 252.378,-167.868c20.092,-14.053 51.386,-50.927 91.826,31.297c2.373,4.825 -5.169,-3.774 -63.858,20.97Z" style="fill:#23e8ff;"/><path d="M369.855,247.587c-3.593,-7.531 -15.512,-35.257 17.144,-49.435l63.905,-25.303c6.626,-1.827 11.11,-0.621 13.849,4.601l18.107,45.594c2.471,6.307 -1.408,12.443 -6.486,13.951l-62.237,24.22c-27.858,9.026 -40.808,-6.338 -44.285,-13.625l0.002,-0.002Zm34.242,-35.335c-9.817,0 -17.787,7.97 -17.787,17.787c0,9.817 7.97,17.787 17.787,17.787c9.817,0 17.787,-7.97 17.787,-17.787c0,-9.817 -7.97,-17.787 -17.787,-17.787Z" style="fill:#23e8ff;"/></g></g></svg>