<?xml version="1.0" encoding="UTF-8" standalone="no"?><!DOCTYPE svg PUBLIC "-//W3C//DTD SVG 1.1//EN" "http://www.w3.org/Graphics/SVG/1.1/DTD/svg11.dtd"><svg width="100%" height="100%" viewBox="0 0 256 256" version="1.1" xmlns="http://www.w3.org/2000/svg" xmlns:xlink="http://www.w3.org/1999/xlink" xml:space="preserve" xmlns:serif="http://www.serif.com/" style="fill-rule:evenodd;clip-rule:evenodd;stroke-linejoin:round;stroke-miterlimit:2;"><path d="M252.015,65.992l0,124.015c0,34.223 -27.785,62.008 -62.008,62.008l-124.015,0c-34.223,0 -62.008,-27.785 -62.008,-62.008l0,-124.015c0,-34.223 27.785,-62.008 62.008,-62.008l124.015,-0c34.223,0 62.008,27.785 62.008,62.008Z" style="fill:#050a13;"/><clipPath id="_clip1"><path d="M252.015,65.992l0,124.015c0,34.223 -27.785,62.008 -62.008,62.008l-124.015,0c-34.223,0 -62.008,-27.785 -62.008,-62.008l0,-124.015c0,-34.223 27.785,-62.008 62.008,-62.008l124.015,-0c34.223,0 62.008,27.785 62.008,62.008Z"/></clipPath><g clip-path="url(#_clip1)"><path d="M4.116,4.543l248.309,0c0.609,0.801 0,0.939 0,12.578l0,236.38c-0.74,0.681 -0.921,0 -12.577,0l-236.38,0c-0.732,-0.795 -0,-2.161 -0,-3.241l0,-245.716c0.046,-0.211 0.602,0.211 0.648,0Z" style="fill:#050a13;"/><path d="M4.121,4.596l248.003,0c0.608,0.798 0,0.935 0,12.521l0,235.313c-0.74,0.678 -0.92,0 -12.562,0l-236.089,0c-0.731,-0.792 -0,-2.151 -0,-3.227l0,-244.607c0.046,-0.21 0.602,0.21 0.648,-0Z" style="fill:url(#_Linear2);"/><g><path d="M48.485,152.891c-7.422,-17.107 -11.242,-26.182 5.331,-33.148c42.361,-17.805 42.085,-18.067 84.504,-35.826c24.554,-10.28 41.288,-21.341 48.008,-4.473c0.517,1.299 5.565,16.458 5.565,16.458l-25.824,10.07c-6.455,2.89 -8.222,11.887 -4.302,21.27c3.412,8.168 13.299,11.24 17.587,9.612l25.032,-9.985c4.998,11.671 18.115,29.453 -0.727,37.434l-116.524,48.924c-5.234,2.617 -11.438,1.095 -13.792,-3.425c-2.524,-4.846 -7.131,-14.166 -16.731,-37.408c3.565,2.11 8.26,2.909 14.072,1.542c5.806,-1.366 9.471,-6.122 9.888,-8.422l-7.296,-0.862c-2.126,3.488 -6.783,3.663 -6.833,3.673c-0.967,-0.076 -4.389,0.521 -7.642,-2.628c-2.131,-2.063 -3.545,-7.278 -1.937,-7.311l24.487,-0.338c1.761,-15.808 -13.922,-25.365 -26.007,-16.929c-3.861,2.696 -6.139,7.066 -6.856,11.772l-0.001,0.001l0.001,0Zm103.445,-14.637c-0.89,-0.024 -1.778,-0.096 -2.668,-0.12c-11.722,-0.314 -15.957,10.163 -14.128,10.415c0.561,0.078 6.652,0.916 7.079,-0.128c2.682,-6.55 11.808,-4.339 13.325,-1.491c5.168,9.708 -17.972,2.398 -21.607,13.288c-4.825,14.456 16.054,18.547 21.636,9.481c1.485,-2.411 0.721,0.715 0.73,3.525c0.002,0.821 3.446,0.564 6.813,0.55c0.949,-0.004 0.629,-3.194 0.644,-12.796c0.02,-12.344 1.94,-20.93 -11.824,-22.725l0,0.001Zm4.205,23.254c-1.968,11.645 -20.109,7.207 -14.218,-0.44c1.887,-2.449 5.289,-1.758 13.76,-4.01c0.834,-0.222 0.46,4.096 0.459,4.45l0,-0Zm-44.002,-24.636l-8.526,0l-7.856,24.353l-8.835,-30.064l-8.597,0l12.549,43.29l8.879,0l8.122,-25.759l8.122,25.759l8.879,0l12.549,-43.29l-8.597,0l-8.835,30.064l-7.856,-24.353l0.001,0Zm-45.141,7.519c0.815,0.235 6.977,2.007 6.878,8.064c-0.009,0.536 -0.349,0.429 -16.477,0.455c-2.206,0.004 -1.525,-1.071 -0.708,-3.077c2.603,-6.393 9.383,-5.557 10.308,-5.443l0,0.001Z" style="fill:#23e8ff;"/><path d="M153.368,68.306c-7.621,3.367 -96.489,42.632 -96.285,39.703c0.02,-0.285 49.066,-31.346 86.679,-57.654c6.901,-4.826 17.648,-17.491 31.538,10.749c0.815,1.657 -1.775,-1.296 -21.932,7.202Z" style="fill:#23e8ff;"/><path d="M166.924,126.023c-1.234,-2.587 -5.328,-12.109 5.888,-16.978l21.948,-8.69c2.276,-0.627 3.816,-0.213 4.756,1.58l6.219,15.659c0.849,2.166 -0.484,4.274 -2.228,4.791l-21.375,8.318c-9.568,3.1 -14.015,-2.177 -15.21,-4.679l0.001,-0.001Zm11.76,-12.136c-3.372,0 -6.109,2.737 -6.109,6.109c0,3.372 2.737,6.109 6.109,6.109c3.372,0 6.109,-2.737 6.109,-6.109c0,-3.372 -2.737,-6.109 -6.109,-6.109Z" style="fill:#23e8ff;"/></g></g><defs><linearGradient id="_Linear2" x1="0" y1="0" x2="1" y2="0" gradientUnits="userSpaceOnUse" gradientTransform="matrix(0,173.048156,-173.618845,0,132.230041,43.22965)"><stop offset="0" style="stop-color:#050a13;stop-opacity:1"/><stop offset="1" style="stop-color:#285173;stop-opacity:1"/></linearGradient></defs></svg>