<?xml version="1.0" encoding="UTF-8" standalone="no"?><!DOCTYPE svg PUBLIC "-//W3C//DTD SVG 1.1//EN" "http://www.w3.org/Graphics/SVG/1.1/DTD/svg11.dtd"><svg width="100%" height="100%" viewBox="0 0 1024 1024" version="1.1" xmlns="http://www.w3.org/2000/svg" xmlns:xlink="http://www.w3.org/1999/xlink" xml:space="preserve" xmlns:serif="http://www.serif.com/" style="fill-rule:evenodd;clip-rule:evenodd;stroke-linejoin:round;stroke-miterlimit:2;"><path id="bg-dark" serif:id="bg dark" d="M967.613,284.193l0,455.613c0,125.73 -102.077,227.807 -227.807,227.807l-455.613,0c-125.73,0 -227.807,-102.077 -227.807,-227.807l0,-455.613c0,-125.73 102.077,-227.807 227.807,-227.807l455.613,0c125.73,0 227.807,102.077 227.807,227.807Z" style="fill:#252834;"/><g id="phone-icone" serif:id="phone icone"><g><path d="M642.826,784.95c-0.001,0.294 -0.001,0.587 -0.001,0.881l0,104.86l24.897,0c68.31,-0 129.331,-31.139 169.351,-79.845c30.531,-37.158 48.84,-84.54 48.84,-136.121l-0,-258.113l-0.018,0l-0,-81.484c0.012,-0.934 0.018,-1.87 0.018,-2.806l-0,-104.86l-24.897,0c-68.31,0 -129.331,31.139 -169.351,79.845c-30.531,37.158 -48.84,84.54 -48.84,136.121l0,258.113l0.001,83.409Z" style="fill:url(#_Linear1);"/><path d="M429.863,750.974c-0.001,0.203 -0.001,0.406 -0.001,0.61l0,72.549l17.226,0c47.262,0 89.48,-21.544 117.169,-55.242c21.124,-25.708 33.791,-58.491 33.791,-94.178l-0,-112.022l-0.013,0l-0,-56.376c0.008,-0.646 0.013,-1.293 0.013,-1.942l-0,-72.549l-17.226,0c-47.262,0 -89.48,21.544 -117.169,55.242c-21.124,25.708 -33.791,58.491 -33.791,94.178l0,112.022l0.001,57.708Z" style="fill:url(#_Linear2);"/><path d="M381.174,784.95c0.001,0.294 0.001,0.587 0.001,0.881l-0,104.86l-24.897,0c-68.31,0 -129.331,-31.139 -169.351,-79.845c-30.531,-37.158 -48.84,-84.54 -48.84,-136.121l0,-258.113l0.018,0l0,-81.484c-0.012,-0.934 -0.018,-1.87 -0.018,-2.806l0,-104.86l24.897,0c68.31,0 129.331,31.139 169.351,79.845c30.531,37.158 48.84,84.54 48.84,136.121l-0,258.113l-0.001,83.409Z" style="fill:url(#_Linear3);"/></g></g><defs><linearGradient id="_Linear1" x1="0" y1="0" x2="1" y2="0" gradientUnits="userSpaceOnUse" gradientTransform="matrix(-4.419924,772.632456,-772.632456,-4.419924,486.503144,172.388005)"><stop offset="0" style="stop-color:#da32fc;stop-opacity:1"/><stop offset="1" style="stop-color:#4e77fe;stop-opacity:1"/></linearGradient><linearGradient id="_Linear2" x1="0" y1="0" x2="1" y2="0" gradientUnits="userSpaceOnUse" gradientTransform="matrix(-4.419924,772.632456,-772.632456,-4.419924,486.503144,172.388005)"><stop offset="0" style="stop-color:#da32fc;stop-opacity:1"/><stop offset="1" style="stop-color:#4e77fe;stop-opacity:1"/></linearGradient><linearGradient id="_Linear3" x1="0" y1="0" x2="1" y2="0" gradientUnits="userSpaceOnUse" gradientTransform="matrix(-4.419924,772.632456,-772.632456,-4.419924,486.503144,172.388005)"><stop offset="0" style="stop-color:#da32fc;stop-opacity:1"/><stop offset="1" style="stop-color:#4e77fe;stop-opacity:1"/></linearGradient></defs></svg>